<svg xmlns="http://www.w3.org/2000/svg" xmlns:xlink="http://www.w3.org/1999/xlink" xmlns:serif="http://www.serif.com/" width="100%" height="100%" viewBox="0 0 464 84" xml:space="preserve" style="fill-rule:evenodd;clip-rule:evenodd;stroke-linejoin:round;stroke-miterlimit:2;">    <g transform="matrix(1,0,0,1,-213.078,-9736.19)">        <g transform="matrix(2.66667,0,0,2.66667,0,0)">            <g transform="matrix(1,0,0,1,88.8193,3682.55)">                <path d="M0,-19.788L9.103,-19.788L0.139,0L-8.915,0L0,-19.788Z" style="fill:rgb(125,89,152);fill-rule:nonzero;"></path>            </g>        </g>        <g transform="matrix(2.66667,0,0,2.66667,0,0)">            <g transform="matrix(1,0,0,1,115.989,3675.64)">                <path d="M0,-17.649L-24.936,-17.649L-21.838,-24.563L8.288,-24.563C9.685,-24.563 10.783,-24.253 11.581,-23.633C12.379,-23.013 12.78,-22.159 12.78,-21.071C12.78,-20.806 12.735,-20.507 12.64,-20.176C12.546,-19.841 12.414,-19.489 12.247,-19.116L0.418,6.914L-8.685,6.914L1.537,-15.554C1.568,-15.631 1.6,-15.729 1.631,-15.844C1.662,-15.959 1.676,-16.063 1.676,-16.157C1.676,-16.576 1.516,-16.928 1.199,-17.217C0.882,-17.503 0.481,-17.649 0,-17.649" style="fill:white;fill-rule:nonzero;"></path>            </g>        </g>        <g transform="matrix(2.66667,0,0,2.66667,0,0)">            <g transform="matrix(1,0,0,1,102.648,3682.55)">                <path d="M0,-19.788L8.964,-19.788L0.049,0L-8.915,0L0,-19.788Z" style="fill:rgb(125,89,152);fill-rule:nonzero;"></path>            </g>        </g>        <g transform="matrix(2.66667,0,0,2.66667,0,0)">            <g transform="matrix(1,0,0,1,138.13,3682.55)">                <path d="M0,-31.477L14.972,-31.477C16.059,-31.477 16.917,-31.191 17.544,-30.616C18.171,-30.041 18.485,-29.257 18.485,-28.264C18.485,-27.999 18.471,-27.751 18.44,-27.518C18.408,-27.284 18.363,-27.061 18.3,-26.842L10.476,0L-19.558,0L-3.144,-19.788L6.238,-19.788L-3.541,-6.914L3.234,-6.914L8.239,-22.932C8.239,-22.932 8.246,-22.97 8.263,-23.001C8.308,-23.203 8.333,-23.374 8.333,-23.514C8.333,-23.824 8.218,-24.075 7.984,-24.27C7.751,-24.465 7.441,-24.563 7.054,-24.563L-3.049,-24.563L0,-31.477Z" style="fill:white;fill-rule:nonzero;"></path>            </g>        </g>        <g transform="matrix(2.66667,0,0,2.66667,0,0)">            <g transform="matrix(-0.412637,0.910895,0.910895,0.412637,169.799,3684.98)">                <path d="M-21.788,-5.738L-0.065,-5.738L3.7,-14.05L-18.023,-14.05L-21.788,-5.738Z" style="fill:white;fill-rule:nonzero;"></path>            </g>        </g>        <g transform="matrix(2.66667,0,0,2.66667,0,0)">            <g transform="matrix(-1,0,0,1,161.689,3651.08)">                <path d="M-21.21,6.914L3.144,6.914L0,0L-24.354,0L-21.21,6.914Z" style="fill:white;fill-rule:nonzero;"></path>            </g>        </g>        <g transform="matrix(2.66667,0,0,2.66667,0,0)">            <g transform="matrix(1,0,0,1,193.166,3662.08)">                <path d="M0,9.455C0.045,9.361 0.08,9.26 0.105,9.152C0.129,9.044 0.139,8.936 0.139,8.824C0.139,8.42 -0.021,8.075 -0.338,7.789C-0.655,7.503 -1.056,7.357 -1.537,7.357L-3.82,7.357L-9.873,20.464L-18.976,20.464L-10.058,0.91L4.004,0.91L5.283,-2.095C5.329,-2.203 5.364,-2.314 5.388,-2.433C5.412,-2.548 5.423,-2.67 5.423,-2.795C5.423,-3.199 5.269,-3.53 4.97,-3.795C4.667,-4.06 4.266,-4.193 3.771,-4.193L-7.775,-4.193L-4.68,-11.013L11.825,-11.013C13.222,-11.013 14.317,-10.703 15.108,-10.082C15.899,-9.462 16.296,-8.608 16.296,-7.521C16.296,-7.242 16.254,-6.939 16.167,-6.611C16.084,-6.284 15.955,-5.935 15.784,-5.562L10.964,5.123C10.546,6.022 10.023,6.66 9.406,7.033C8.786,7.406 7.925,7.59 6.82,7.59L6.517,7.59C7.061,7.932 7.469,8.34 7.74,8.814C8.012,9.288 8.148,9.817 8.148,10.41C8.148,10.689 8.103,11.002 8.009,11.354C7.915,11.703 7.782,12.058 7.615,12.414L3.959,20.468L-4.91,20.468L0.004,9.455L0,9.455Z" style="fill:white;fill-rule:nonzero;"></path>            </g>        </g>        <g transform="matrix(2.66667,0,0,2.66667,0,0)">            <g transform="matrix(-0.413522,0.910494,0.910494,0.413522,224.088,3683.97)">                <path d="M-30.867,-11.594L3.704,-11.594L7.468,-19.883L-27.103,-19.883L-30.867,-11.594Z" style="fill:white;fill-rule:nonzero;"></path>            </g>        </g>        <g transform="matrix(2.66667,0,0,2.66667,0,0)">            <g transform="matrix(1,0,0,1,234.607,3660.27)">                <path d="M0,13.083L-4.353,18.903C-5.224,20.067 -6.357,20.921 -7.751,21.465C-9.148,22.008 -10.919,22.28 -13.059,22.28L-18.272,22.28L-15.104,15.366L-13.592,15.366C-12.585,15.366 -11.706,15.216 -10.961,14.913C-10.215,14.609 -9.612,14.156 -9.145,13.55L-2.673,5.074L-7.399,-9.197L1.007,-9.197L3.196,-1.607L6.245,-6.332C6.88,-7.312 7.709,-8.033 8.723,-8.497C9.741,-8.964 11.023,-9.194 12.578,-9.194L19.025,-9.194L15.882,-2.279L15.066,-2.279C13.996,-2.279 13.093,-2.126 12.365,-1.826C11.637,-1.523 11.055,-1.07 10.619,-0.464L6.057,6.078L11.389,22.28L2.962,22.28L0.007,13.083L0,13.083Z" style="fill:white;fill-rule:nonzero;"></path>            </g>        </g>    </g></svg>