<svg xmlns="http://www.w3.org/2000/svg" xmlns:xlink="http://www.w3.org/1999/xlink" xmlns:serif="http://www.serif.com/" width="100%" height="100%" viewBox="0 0 721 131" xml:space="preserve" style="fill-rule:evenodd;clip-rule:evenodd;stroke-linejoin:round;stroke-miterlimit:2;">    <g transform="matrix(1,0,0,1,-755,-1239)">        <g transform="matrix(4.16667,0,0,4.16667,791.983,1369.56)">            <path d="M0,-19.7L9.062,-19.7L0.139,0L-8.876,0L0,-19.7Z" style="fill:rgb(125,89,152);fill-rule:nonzero;"></path>        </g>        <g transform="matrix(4.16667,0,0,4.16667,904.68,1340.88)">            <path d="M0,-17.567L-24.823,-17.567L-21.74,-24.451L8.251,-24.451C9.641,-24.451 10.734,-24.141 11.53,-23.524C12.326,-22.906 12.724,-22.056 12.724,-20.974C12.724,-20.711 12.678,-20.414 12.585,-20.082C12.492,-19.75 12.36,-19.398 12.191,-19.027L0.417,6.884L-8.645,6.884L1.529,-15.482C1.56,-15.558 1.591,-15.655 1.622,-15.771C1.653,-15.887 1.669,-15.991 1.669,-16.084C1.669,-16.501 1.51,-16.852 1.193,-17.138C0.877,-17.424 0.479,-17.567 0,-17.567" style="fill-rule:nonzero;"></path>        </g>        <g transform="matrix(4.16667,0,0,4.16667,849.342,1369.56)">            <path d="M0,-19.7L8.924,-19.7L0.047,0L-8.876,0L0,-19.7Z" style="fill:rgb(125,89,152);fill-rule:nonzero;"></path>        </g>        <g transform="matrix(4.16667,0,0,4.16667,996.514,1369.56)">            <path d="M0,-31.335L14.903,-31.335C15.984,-31.335 16.838,-31.049 17.464,-30.478C18.09,-29.906 18.402,-29.125 18.402,-28.137C18.402,-27.873 18.387,-27.627 18.356,-27.395C18.325,-27.164 18.279,-26.939 18.217,-26.723L10.43,0L-19.468,0L-3.128,-19.7L6.212,-19.7L-3.522,-6.884L3.222,-6.884L8.205,-22.829C8.205,-22.844 8.213,-22.868 8.228,-22.899C8.275,-23.099 8.298,-23.27 8.298,-23.409C8.298,-23.718 8.182,-23.968 7.95,-24.162C7.718,-24.355 7.409,-24.451 7.023,-24.451L-3.036,-24.451L0,-31.335Z" style="fill-rule:nonzero;"></path>        </g>        <g transform="matrix(-1.71914,3.79548,3.79548,1.71914,1127.88,1379.63)">            <path d="M-21.692,-5.712L-0.065,-5.712L3.684,-13.988L-17.943,-13.988L-21.692,-5.712Z" style="fill-rule:nonzero;"></path>        </g>        <g transform="matrix(-4.16667,0,0,4.16667,1094.25,1239)">            <path d="M-21.113,6.884L3.129,6.884L0.001,0L-24.242,0L-21.113,6.884Z" style="fill-rule:nonzero;"></path>        </g>        <g transform="matrix(4.16667,0,0,4.16667,1224.8,1284.68)">            <path d="M0,9.409C0.046,9.316 0.081,9.216 0.104,9.108C0.128,9 0.139,8.891 0.139,8.784C0.139,8.382 -0.02,8.038 -0.336,7.752C-0.653,7.466 -1.051,7.323 -1.53,7.323L-3.801,7.323L-9.827,20.372L-18.889,20.372L-10.013,0.904L3.986,0.904L5.261,-2.086C5.307,-2.195 5.342,-2.306 5.366,-2.423C5.388,-2.538 5.4,-2.658 5.4,-2.782C5.4,-3.183 5.249,-3.515 4.948,-3.778C4.647,-4.041 4.249,-4.173 3.755,-4.173L-7.741,-4.173L-4.659,-10.963L11.774,-10.963C13.164,-10.963 14.253,-10.654 15.041,-10.036C15.829,-9.418 16.224,-8.568 16.224,-7.487C16.224,-7.208 16.18,-6.907 16.096,-6.583C16.011,-6.258 15.883,-5.91 15.713,-5.54L10.916,5.098C10.499,5.994 9.98,6.628 9.364,6.999C8.745,7.369 7.887,7.555 6.79,7.555L6.489,7.555C7.03,7.895 7.436,8.3 7.706,8.772C7.976,9.244 8.112,9.772 8.112,10.36C8.112,10.638 8.065,10.951 7.972,11.298C7.88,11.646 7.748,11.998 7.579,12.353L3.94,20.372L-4.89,20.372L0,9.409Z" style="fill-rule:nonzero;"></path>        </g>        <g transform="matrix(-1.72286,3.79379,3.79379,1.72286,1353.07,1375.46)">            <path d="M-30.728,-11.542L3.687,-11.542L7.435,-19.793L-26.981,-19.792L-30.728,-11.542Z" style="fill-rule:nonzero;"></path>        </g>        <g transform="matrix(4.16667,0,0,4.16667,1396.7,1277.15)">            <path d="M0,13.025L-4.334,18.819C-5.2,19.978 -6.327,20.828 -7.718,21.369C-9.108,21.91 -10.87,22.18 -13.002,22.18L-18.194,22.18L-15.042,15.296L-13.536,15.296C-12.531,15.296 -11.658,15.146 -10.916,14.844C-10.174,14.543 -9.572,14.091 -9.108,13.488L-2.666,5.052L-7.37,-9.155L0.996,-9.155L3.174,-1.599L6.211,-6.304C6.844,-7.278 7.667,-7.996 8.679,-8.46C9.691,-8.923 10.969,-9.155 12.515,-9.155L18.935,-9.155L15.806,-2.271L14.994,-2.271C13.928,-2.271 13.032,-2.121 12.306,-1.819C11.58,-1.518 11,-1.066 10.568,-0.464L6.025,6.049L11.333,22.18L2.943,22.18L0,13.025Z" style="fill-rule:nonzero;"></path>        </g>    </g></svg>